<svg width="344" height="30" viewBox="0 0 344 30" fill="none" xmlns="http://www.w3.org/2000/svg">
<rect width="344" height="28" transform="translate(0 2)" fill="#111111"/>
<g clip-path="url(#clip0_4008_18)">
<path d="M86.1538 -1L100.41 30.1281H92.5628L83.4948 7.41417L86.1538 -1ZM76.7807 27.2071C76.5482 27.7884 76.5046 28.2825 76.6499 28.6894C76.7952 29.0963 77.0418 29.416 77.3908 29.6485C77.7398 29.852 78.0888 29.9537 78.4378 29.9537H78.8298V30.3896H69.5V29.9537C69.5 29.9537 69.5727 29.9537 69.718 29.9537C69.8342 29.9537 69.8924 29.9537 69.8924 29.9537C70.5609 29.9537 71.2439 29.7502 71.9414 29.3433C72.668 28.9074 73.2639 28.1953 73.7289 27.2071H76.7807ZM86.1538 -1L86.3288 4.3188L75.5164 30.2589H72.3338L83.6258 4.71117C83.7128 4.53678 83.8578 4.21708 84.0618 3.75204C84.2938 3.25795 84.5268 2.70572 84.7588 2.09537C85.0208 1.48501 85.2528 0.90372 85.4568 0.3515C85.6598 -0.229792 85.7618 -0.680291 85.7618 -1H86.1538ZM90.7318 20.0136V21.8447H77.9138V20.0136H90.7318ZM91.3858 27.2071H99.0148C99.5088 28.1953 100.105 28.9074 100.803 29.3433C101.5 29.7502 102.183 29.9537 102.852 29.9537C102.852 29.9537 102.91 29.9537 103.026 29.9537C103.142 29.9537 103.2 29.9537 103.2 29.9537V30.3896H89.3368V29.9537H89.7288C90.3098 29.9537 90.8188 29.7212 91.2548 29.2561C91.6908 28.762 91.7348 28.079 91.3858 27.2071Z" fill="white"/>
<path d="M102.226 27.1843V30H99V29.6143C99.0269 29.6143 99.1076 29.6143 99.242 29.6143C99.4033 29.6143 99.4973 29.6143 99.5242 29.6143C100.223 29.6143 100.815 29.3829 101.298 28.92C101.809 28.4315 102.078 27.8529 102.105 27.1843H102.226ZM102.226 5.81572H102.105C102.078 5.14715 101.809 4.58143 101.298 4.11857C100.815 3.63 100.223 3.38571 99.5242 3.38571C99.4973 3.38571 99.4033 3.38571 99.242 3.38571C99.1076 3.38571 99.0269 3.38571 99 3.38571V3H102.226V5.81572ZM108.032 27.1843L110.781 29.6143L111.218 30C111.218 30.6686 108.409 28.4315 108.919 28.92C109.43 29.3829 110.035 29.6143 110.734 29.6143C110.788 29.6143 110.882 29.6143 111.016 29.6143C111.151 29.6143 111.218 29.6143 111.218 29.6143V29.9298V30H108.032V27.1843Z" fill="black"/>
<path d="M102.226 30H108.032V27.1843L110.781 29.6143H111.016H111.218V29.9298L125 29.6143V15.5H112.5V20H118V23.5H110.734V8.5H123.5V3H108.153H107.629H102.226V5.81572H102.105V27.1843H102.226V30Z" fill="white"/>
<path d="M133.054 3H137.909C139.038 3 140.142 3.12857 141.22 3.38571C142.299 3.64286 143.253 4.05429 144.081 4.62001C144.934 5.18572 145.611 5.93144 146.113 6.85715C146.615 7.78287 146.866 8.92715 146.866 10.29C146.866 11.37 146.64 12.45 146.188 13.53C145.762 14.5843 145.097 15.4972 144.194 16.2686C143.29 17.0143 142.124 17.4643 140.694 17.6186C141.496 17.8757 142.224 18.3386 142.876 19.0072C143.554 19.6758 144.106 20.3443 144.532 21.0129C144.557 21.0643 144.695 21.2957 144.946 21.7071C145.222 22.1186 145.548 22.6329 145.925 23.25C146.326 23.8415 146.74 24.4457 147.167 25.0629C147.593 25.68 147.982 26.2201 148.333 26.6829C148.885 27.3772 149.387 27.9429 149.839 28.3801C150.29 28.7915 150.767 29.1 151.269 29.3057C151.771 29.4858 152.348 29.5886 153 29.6143V30H149.312C147.957 30 146.728 29.8844 145.624 29.6529C144.52 29.3957 143.541 28.9715 142.688 28.3801C141.835 27.7886 141.095 26.9915 140.468 25.9886C140.267 25.68 140.041 25.2943 139.79 24.8315C139.565 24.3429 139.326 23.8286 139.075 23.2886C138.824 22.7486 138.573 22.2343 138.323 21.7457C138.097 21.2315 137.896 20.7686 137.72 20.3572C137.545 19.9457 137.419 19.6243 137.344 19.3928C137.018 18.57 136.629 17.9528 136.177 17.5414C135.751 17.13 135.287 16.8858 134.785 16.8086V16.4229C134.86 16.4229 135.011 16.4229 135.237 16.4229C135.462 16.4229 135.701 16.4229 135.952 16.4229C136.629 16.4229 137.281 16.2814 137.909 15.9986C138.561 15.7157 139.138 15.2529 139.64 14.61C140.142 13.9671 140.493 13.08 140.694 11.9486C140.744 11.7172 140.781 11.4471 140.806 11.1385C140.857 10.83 140.869 10.4829 140.844 10.0972C140.769 8.24572 140.317 6.89572 139.489 6.04714C138.661 5.17286 137.633 4.72286 136.403 4.69715C136.052 4.67143 135.663 4.67143 135.237 4.69715C134.835 4.69715 134.459 4.69715 134.108 4.69715C133.781 4.69715 133.556 4.69715 133.43 4.69715C133.43 4.67143 133.392 4.53 133.317 4.27286C133.267 3.99 133.204 3.70715 133.129 3.42429C133.079 3.14143 133.054 3 133.054 3ZM133.543 3V30H127.898V3H133.543ZM128.011 27.1843V30H125V29.6143C125.025 29.6143 125.1 29.6143 125.226 29.6143C125.376 29.6143 125.464 29.6143 125.489 29.6143C126.142 29.6143 126.694 29.3829 127.145 28.92C127.622 28.4315 127.873 27.8529 127.898 27.1843H128.011ZM128.011 5.81572H127.898C127.873 5.14715 127.622 4.58143 127.145 4.11857C126.694 3.63 126.142 3.38571 125.489 3.38571C125.464 3.38571 125.376 3.38571 125.226 3.38571C125.1 3.38571 125.025 3.38571 125 3.38571V3H128.011V5.81572ZM133.43 27.1843H133.543C133.543 27.8529 133.781 28.4315 134.258 28.92C134.735 29.3829 135.299 29.6143 135.952 29.6143C136.002 29.6143 136.09 29.6143 136.215 29.6143C136.341 29.6143 136.403 29.6143 136.403 29.6143V30H133.43V27.1843Z" fill="white"/>
<path d="M152.912 30.6489V3.64893H166.912V30.6489H152.912Z" stroke="#FFFAFA" stroke-width="5"/>
<path d="M171 5H182.5M194 5H182.5M182.5 5V31" stroke="#FFFAFA" stroke-width="5"/>
<path d="M200.874 3H201.291H204.728C206.57 3 208.058 3.31287 209.193 3.93862C210.344 4.56167 211.198 5.42049 211.755 6.51505C211.763 6.51313 211.766 6.51768 211.763 6.5292C211.76 6.52448 211.758 6.51976 211.755 6.51505C211.546 6.56726 207.502 11.4209 207.523 11.0345C207.566 10.6091 207.576 10.2211 207.555 9.87068C207.533 8.26877 207.159 6.99225 206.431 6.04112C205.724 5.06495 204.717 4.57688 203.411 4.57688H202.014L207.523 16.5938L202.666 26.4818C205.439 26.3714 211.466 26.175 211.763 26.5405L211.314 29.2812H201.291H201.195H196.57H196.473H194V28.9059H194.193H194.418C194.974 28.9059 195.445 28.6806 195.831 28.23C196.238 27.7545 196.452 27.1913 196.473 26.5405V5.74077C196.473 5.08999 196.27 4.53933 195.863 4.0888C195.456 3.61323 194.974 3.37545 194.418 3.37545H194.225H194.032L194 3H196.473H196.57H200.874Z" fill="white"/>
</g>
<path d="M220.274 1.06689H223.617C224.394 1.06689 225.154 1.1986 225.897 1.46199C226.64 1.72539 227.297 2.14682 227.867 2.7263C228.454 3.30577 228.92 4.06962 229.266 5.01785C229.612 5.96608 229.784 7.1382 229.784 8.5342C229.784 9.64044 229.629 10.7467 229.318 11.853C229.024 12.9329 228.566 13.868 227.944 14.6582C227.322 15.422 226.519 15.883 225.534 16.041C226.087 16.3044 226.588 16.7785 227.037 17.4634C227.504 18.1482 227.884 18.833 228.178 19.5178C228.195 19.5705 228.29 19.8076 228.463 20.229C228.653 20.6505 228.877 21.1773 229.136 21.8094C229.413 22.4152 229.698 23.0342 229.992 23.6664C230.285 24.2985 230.553 24.8517 230.795 25.3257C231.175 26.037 231.521 26.6164 231.831 27.0642C232.142 27.4856 232.471 27.8017 232.816 28.0124C233.162 28.1968 233.559 28.3021 234.008 28.3285V28.7235H231.469C230.536 28.7235 229.689 28.6051 228.929 28.368C228.169 28.1046 227.495 27.67 226.908 27.0642C226.32 26.4584 225.811 25.6418 225.379 24.6146C225.241 24.2985 225.085 23.9034 224.912 23.4293C224.757 22.9289 224.593 22.4021 224.42 21.8489C224.247 21.2958 224.075 20.769 223.902 20.2685C223.746 19.7418 223.608 19.2676 223.487 18.8462C223.366 18.4247 223.28 18.0955 223.228 17.8584C223.003 17.0156 222.736 16.3834 222.425 15.962C222.131 15.5406 221.811 15.2904 221.466 15.2113V14.8162C221.518 14.8162 221.621 14.8162 221.777 14.8162C221.932 14.8162 222.097 14.8162 222.269 14.8162C222.736 14.8162 223.185 14.6713 223.617 14.3816C224.066 14.0919 224.463 13.6178 224.809 12.9592C225.154 12.3007 225.396 11.392 225.534 10.2331C225.569 9.99605 225.595 9.71947 225.612 9.40337C225.647 9.08733 225.655 8.73175 225.638 8.33665C225.586 6.44019 225.275 5.05735 224.705 4.18814C224.135 3.2926 223.427 2.83166 222.58 2.80531C222.338 2.77898 222.071 2.77898 221.777 2.80531C221.5 2.80531 221.241 2.80531 220.999 2.80531C220.775 2.80531 220.619 2.80531 220.533 2.80531C220.533 2.77898 220.507 2.63411 220.455 2.37071C220.421 2.08098 220.378 1.79124 220.326 1.5015C220.291 1.21176 220.274 1.06689 220.274 1.06689ZM220.611 1.06689V28.7235H216.724V1.06689H220.611ZM216.801 25.8394V28.7235H214.728V28.3285C214.746 28.3285 214.797 28.3285 214.884 28.3285C214.987 28.3285 215.048 28.3285 215.065 28.3285C215.514 28.3285 215.894 28.0914 216.205 27.6173C216.534 27.1168 216.706 26.5242 216.724 25.8394H216.801ZM216.801 3.9511H216.724C216.706 3.26626 216.534 2.68679 216.205 2.21267C215.894 1.71221 215.514 1.46199 215.065 1.46199C215.048 1.46199 214.987 1.46199 214.884 1.46199C214.797 1.46199 214.746 1.46199 214.728 1.46199V1.06689H216.801V3.9511ZM220.533 25.8394H220.611C220.611 26.5242 220.775 27.1168 221.103 27.6173C221.431 28.0914 221.82 28.3285 222.269 28.3285C222.304 28.3285 222.364 28.3285 222.451 28.3285C222.537 28.3285 222.58 28.3285 222.58 28.3285V28.7235H220.533V25.8394Z" fill="white"/>
<path d="M239.258 1H242.601C243.378 1 244.138 1.1317 244.881 1.39509C245.624 1.6585 246.28 2.07993 246.851 2.6594C247.438 3.23888 247.904 4.00273 248.25 4.95096C248.595 5.89918 248.768 7.0713 248.768 8.46731C248.768 9.57355 248.613 10.6798 248.302 11.7861C248.008 12.866 247.55 13.8011 246.928 14.5913C246.306 15.3552 245.503 15.8161 244.518 15.9741C245.071 16.2375 245.572 16.7116 246.021 17.3965C246.488 18.0813 246.868 18.7661 247.162 19.4509C247.179 19.5036 247.274 19.7407 247.447 20.1621C247.637 20.5836 247.861 21.1104 248.12 21.7425C248.397 22.3483 248.682 22.9673 248.975 23.5995C249.269 24.2316 249.537 24.7848 249.779 25.2588C250.159 25.9701 250.504 26.5495 250.815 26.9973C251.126 27.4187 251.455 27.7348 251.8 27.9455C252.146 28.1299 252.543 28.2352 252.992 28.2616V28.6566H250.453C249.52 28.6566 248.673 28.5382 247.913 28.3011C247.153 28.0377 246.479 27.6031 245.892 26.9973C245.304 26.3915 244.795 25.5749 244.363 24.5477C244.225 24.2316 244.069 23.8365 243.896 23.3624C243.741 22.862 243.577 22.3352 243.404 21.782C243.231 21.2289 243.058 20.7021 242.886 20.2016C242.73 19.6749 242.592 19.2007 242.471 18.7793C242.35 18.3578 242.264 18.0286 242.212 17.7915C241.987 16.9487 241.72 16.3165 241.409 15.8951C241.115 15.4737 240.795 15.2235 240.45 15.1444V14.7493C240.502 14.7493 240.605 14.7493 240.761 14.7493C240.916 14.7493 241.08 14.7493 241.253 14.7493C241.72 14.7493 242.169 14.6044 242.601 14.3147C243.05 14.025 243.447 13.5509 243.793 12.8923C244.138 12.2338 244.38 11.3251 244.518 10.1662C244.553 9.92916 244.579 9.65257 244.596 9.33647C244.631 9.02044 244.639 8.66485 244.622 8.26975C244.57 6.3733 244.259 4.99046 243.689 4.12125C243.119 3.2257 242.411 2.76476 241.564 2.73842C241.322 2.71208 241.054 2.71208 240.761 2.73842C240.484 2.73842 240.225 2.73842 239.983 2.73842C239.759 2.73842 239.603 2.73842 239.517 2.73842C239.517 2.71208 239.491 2.56721 239.439 2.30382C239.405 2.01408 239.361 1.72434 239.31 1.43461C239.275 1.14487 239.258 1 239.258 1ZM239.595 1V28.6566H235.708V1H239.595ZM235.785 25.7725V28.6566H233.712V28.2616C233.729 28.2616 233.781 28.2616 233.868 28.2616C233.971 28.2616 234.032 28.2616 234.049 28.2616C234.498 28.2616 234.878 28.0245 235.189 27.5504C235.518 27.0499 235.69 26.4573 235.708 25.7725H235.785ZM235.785 3.8842H235.708C235.69 3.19937 235.518 2.61989 235.189 2.14578C234.878 1.64532 234.498 1.39509 234.049 1.39509C234.032 1.39509 233.971 1.39509 233.868 1.39509C233.781 1.39509 233.729 1.39509 233.712 1.39509V1H235.785V3.8842ZM239.517 25.7725H239.595C239.595 26.4573 239.759 27.0499 240.087 27.5504C240.415 28.0245 240.804 28.2616 241.253 28.2616C241.288 28.2616 241.348 28.2616 241.435 28.2616C241.521 28.2616 241.564 28.2616 241.564 28.2616V28.6566H239.517V25.7725Z" fill="white"/>
<path d="M259.002 0L267.476 28.2098H262.812L257.422 7.62534L259.002 0ZM253.431 25.5627C253.293 26.0895 253.267 26.5373 253.353 26.906C253.439 27.2748 253.586 27.5645 253.793 27.7752C254.001 27.9596 254.208 28.0518 254.416 28.0518H254.649V28.4468H249.103V28.0518C249.103 28.0518 249.146 28.0518 249.233 28.0518C249.302 28.0518 249.336 28.0518 249.336 28.0518C249.734 28.0518 250.14 27.8674 250.554 27.4986C250.986 27.1036 251.34 26.4582 251.617 25.5627H253.431ZM259.002 0L259.106 4.82016L252.679 28.3284H250.788L257.5 5.17575C257.551 5.01771 257.637 4.72798 257.759 4.30654C257.897 3.85877 258.035 3.35831 258.173 2.80518C258.329 2.25204 258.467 1.72525 258.588 1.2248C258.709 0.698001 258.769 0.289736 258.769 0H259.002ZM261.723 19.0436V20.703H254.104V19.0436H261.723ZM262.112 25.5627H266.647C266.94 26.4582 267.295 27.1036 267.71 27.4986C268.124 27.8674 268.53 28.0518 268.927 28.0518C268.927 28.0518 268.962 28.0518 269.031 28.0518C269.1 28.0518 269.134 28.0518 269.134 28.0518V28.4468H260.894V28.0518H261.127C261.473 28.0518 261.775 27.8411 262.034 27.4196C262.293 26.9718 262.32 26.3528 262.112 25.5627Z" fill="white"/>
<defs>
<clipPath id="clip0_4008_18">
<rect width="199" height="28" fill="white" transform="translate(72.5 2)"/>
</clipPath>
</defs>
</svg>
