<svg width="59" height="41" viewBox="0 0 59 41" fill="none" xmlns="http://www.w3.org/2000/svg">
<path d="M16.2127 33.9622C19.6814 33.9622 23.0081 32.5843 25.4608 30.1315C27.9135 27.6788 29.2915 24.3522 29.2915 20.8835C29.2915 17.4148 27.9135 14.0881 25.4608 11.6354C23.0081 9.18269 19.6814 7.80469 16.2127 7.80469C12.7443 7.80469 9.41803 9.18249 6.96556 11.635C4.51305 14.0875 3.13525 17.4139 3.13525 20.8822C3.13525 24.3506 4.51305 27.6769 6.96556 30.1294C9.41803 32.5819 12.7443 33.9622 16.2127 33.9622Z" stroke="#101996" stroke-width="3" stroke-miterlimit="10" stroke-linecap="round" stroke-linejoin="round"/>
<path d="M16.2125 25.2578C17.3728 25.2578 18.4856 24.7968 19.3061 23.9763C20.1265 23.1559 20.5875 22.0431 20.5875 20.8828C20.5875 19.7224 20.1265 18.6096 19.3061 17.7892C18.4856 16.9687 17.3728 16.5077 16.2125 16.5078C15.0521 16.5077 13.9393 16.9687 13.1189 17.7892C12.2984 18.6096 11.8375 19.7224 11.8375 20.8828C11.8375 22.0431 12.2984 23.1559 13.1189 23.9763C13.9393 24.7968 15.0521 25.2578 16.2125 25.2578Z" stroke="#101996" stroke-width="3" stroke-miterlimit="10" stroke-linecap="round" stroke-linejoin="round"/>
<path d="M42.3652 25.2578C43.5255 25.2578 44.6383 24.7968 45.4588 23.9763C46.2793 23.1559 46.7402 22.0431 46.7402 20.8828C46.7402 19.7224 46.2793 18.6096 45.4588 17.7892C44.6383 16.9687 43.5255 16.5077 42.3652 16.5078C41.2049 16.5077 40.0921 16.9687 39.2716 17.7892C38.4511 18.6096 37.9902 19.7224 37.9902 20.8828C37.9902 22.0431 38.4511 23.1559 39.2716 23.9763C40.0921 24.7968 41.2049 25.2578 42.3652 25.2578Z" stroke="#101996" stroke-width="3" stroke-miterlimit="10" stroke-linecap="round" stroke-linejoin="round"/>
<path d="M6.11279 12.4875C11.1278 5.86 19.6378 1.5 29.2878 1.5C38.9378 1.5 47.4453 5.86 52.4628 12.4875" stroke="#101996" stroke-width="3" stroke-miterlimit="10" stroke-linecap="round" stroke-linejoin="round"/>
<path d="M42.3629 33.9636C44.0802 33.9638 45.7808 33.6257 47.3675 32.9686C48.9542 32.3116 50.396 31.3484 51.6104 30.1342C52.8249 28.92 53.7883 27.4784 54.4457 25.8918C55.103 24.3053 55.4415 22.6047 55.4416 20.8874C55.4418 19.17 55.1037 17.4694 54.4466 15.8827C53.7896 14.296 52.8264 12.8543 51.6122 11.6398C50.398 10.4254 48.9564 9.46189 47.3698 8.80459C45.7833 8.14719 44.0827 7.80879 42.3654 7.80859C38.8973 7.80859 35.5713 9.18629 33.1191 11.6386C30.6668 14.0908 29.2891 17.4168 29.2891 20.8849C29.2891 24.3529 30.6668 27.6789 33.1191 30.1312C35.5713 32.5835 38.8973 33.9611 42.3654 33.9611L42.3629 33.9636Z" stroke="#101996" stroke-width="3" stroke-miterlimit="10" stroke-linecap="round" stroke-linejoin="round"/>
<path d="M22.3878 32.3906L29.3228 39.3281L36.2603 32.3906" stroke="#101996" stroke-width="3" stroke-linecap="round" stroke-linejoin="round"/>
<path d="M42.3652 7.80469H57.0752" stroke="#101996" stroke-width="3" stroke-linecap="round" stroke-linejoin="round"/>
<path d="M16.2125 7.80469H1.5" stroke="#101996" stroke-width="3" stroke-linecap="round" stroke-linejoin="round"/>
</svg>
