<svg width="30" height="23" viewBox="0 0 30 23" fill="none" xmlns="http://www.w3.org/2000/svg">
<path d="M27.0796 1.9649C28.7966 3.7876 29.7186 5.8333 29.7186 9.1495C29.7186 14.9818 25.6245 20.2105 19.6676 22.7947L18.1798 20.4987C23.7386 17.491 24.825 13.5898 25.2593 11.13C24.3643 11.5928 23.1926 11.7555 22.0441 11.6492C19.0368 11.3703 16.6666 8.9015 16.6666 5.8333C16.6666 2.6117 19.2783 0 22.5 0C24.2885 0 25.9986 0.81742 27.0796 1.9649ZM10.4129 1.9649C12.13 3.7876 13.052 5.8333 13.052 9.1495C13.052 14.9818 8.95776 20.2105 3.00093 22.7947L1.51311 20.4987C7.07186 17.491 8.15826 13.5898 8.59256 11.13C7.69756 11.5928 6.52596 11.7555 5.37736 11.6492C2.37011 11.3703 0 8.9015 0 5.8333C0 2.6117 2.61167 0 5.83336 0C7.62176 0 9.33196 0.81742 10.4129 1.9649Z" fill="#101996"/>
</svg>
